%TF.GenerationSoftware,KiCad,Pcbnew,10.0.4*%
%TF.CreationDate,2026-07-24T22:46:46+12:00*%
%TF.ProjectId,50x50 2 Layer,35307835-3020-4322-904c-617965722e6b,B*%
%TF.SameCoordinates,Original*%
%TF.FileFunction,Copper,L2,Bot*%
%TF.FilePolarity,Positive*%
%FSLAX46Y46*%
G04 Gerber Fmt 4.6, Leading zero omitted, Abs format (unit mm)*
G04 Created by KiCad (PCBNEW 10.0.4) date 2026-07-24 22:46:46*
%MOMM*%
%LPD*%
G01*
G04 APERTURE LIST*
G04 Aperture macros list*
%AMRoundRect*
0 Rectangle with rounded corners*
0 $1 Rounding radius*
0 $2 $3 $4 $5 $6 $7 $8 $9 X,Y pos of 4 corners*
0 Add a 4 corners polygon primitive as box body*
4,1,4,$2,$3,$4,$5,$6,$7,$8,$9,$2,$3,0*
0 Add four circle primitives for the rounded corners*
1,1,$1+$1,$2,$3*
1,1,$1+$1,$4,$5*
1,1,$1+$1,$6,$7*
1,1,$1+$1,$8,$9*
0 Add four rect primitives between the rounded corners*
20,1,$1+$1,$2,$3,$4,$5,0*
20,1,$1+$1,$4,$5,$6,$7,0*
20,1,$1+$1,$6,$7,$8,$9,0*
20,1,$1+$1,$8,$9,$2,$3,0*%
G04 Aperture macros list end*
%TA.AperFunction,ComponentPad*%
%ADD10R,1.700000X1.700000*%
%TD*%
%TA.AperFunction,ComponentPad*%
%ADD11O,1.700000X1.700000*%
%TD*%
%TA.AperFunction,HeatsinkPad*%
%ADD12C,0.500000*%
%TD*%
%TA.AperFunction,HeatsinkPad*%
%ADD13R,3.400000X3.400000*%
%TD*%
%TA.AperFunction,ComponentPad*%
%ADD14C,1.524000*%
%TD*%
%TA.AperFunction,ComponentPad*%
%ADD15O,1.200000X1.800000*%
%TD*%
%TA.AperFunction,ComponentPad*%
%ADD16O,1.200000X2.000000*%
%TD*%
%TA.AperFunction,ComponentPad*%
%ADD17C,1.700000*%
%TD*%
%TA.AperFunction,ComponentPad*%
%ADD18C,0.700000*%
%TD*%
%TA.AperFunction,ComponentPad*%
%ADD19O,0.900000X2.400000*%
%TD*%
%TA.AperFunction,ComponentPad*%
%ADD20O,0.900000X1.700000*%
%TD*%
%TA.AperFunction,ComponentPad*%
%ADD21RoundRect,0.250000X-0.600000X-0.750000X0.600000X-0.750000X0.600000X0.750000X-0.600000X0.750000X0*%
%TD*%
%TA.AperFunction,ComponentPad*%
%ADD22O,1.700000X2.000000*%
%TD*%
G04 APERTURE END LIST*
D10*
%TO.P,U5,1,SCL_1*%
%TO.N,/I2C1_SCL*%
X137879000Y-71144000D03*
D11*
%TO.P,U5,2,INT_1_2*%
%TO.N,INT_1*%
X137879000Y-73684000D03*
%TO.P,U5,3,SDA_3*%
%TO.N,/I2C1_SDA*%
X137879000Y-76224000D03*
%TO.P,U5,4,GND_4*%
%TO.N,GND*%
X153119000Y-76224000D03*
%TO.P,U5,5*%
%TO.N,unconnected-(U5-Pad5)*%
X153119000Y-73684000D03*
D10*
%TO.P,U5,6,+3V3_6*%
%TO.N,+3V3*%
X153119000Y-71144000D03*
%TD*%
D12*
%TO.P,U4,61,GND_61*%
%TO.N,GND*%
X175790000Y-79585000D03*
X175790000Y-81035000D03*
X175790000Y-82485000D03*
X177240000Y-79585000D03*
X177240000Y-81035000D03*
D13*
X177240000Y-81035000D03*
D12*
X177240000Y-82485000D03*
X178690000Y-79585000D03*
X178690000Y-81035000D03*
X178690000Y-82485000D03*
%TD*%
D14*
%TO.P,SW4,1,A_1*%
%TO.N,VOUT*%
X160450000Y-72285000D03*
%TO.P,SW4,2,B_2*%
%TO.N,Net-(SW1A-B)*%
X162450000Y-72285000D03*
%TO.P,SW4,3,C_3*%
%TO.N,unconnected-(SW4-C-Pad3)*%
X164450000Y-72285000D03*
D15*
%TO.P,SW4,4*%
%TO.N,N/C*%
X158350000Y-72285000D03*
%TO.P,SW4,5*%
X166550000Y-72285000D03*
%TD*%
D16*
%TO.P,SW1,8*%
%TO.N,N/C*%
X158350000Y-79185000D03*
%TO.P,SW1,7*%
X166550000Y-79185000D03*
D14*
%TO.P,SW1,6,C_6*%
%TO.N,Net-(D4-A)*%
X164450000Y-77935000D03*
%TO.P,SW1,5,B_5*%
%TO.N,VOUT*%
X162450000Y-77935000D03*
%TO.P,SW1,4,A_4*%
%TO.N,Net-(D1-A)*%
X160450000Y-77935000D03*
%TO.P,SW1,3,C_3*%
%TO.N,VBUS*%
X164450000Y-80435000D03*
%TO.P,SW1,2,B_2*%
%TO.N,Net-(SW1A-B)*%
X162450000Y-80435000D03*
%TO.P,SW1,1,A_1*%
%TO.N,Net-(D2-K)*%
X160450000Y-80435000D03*
%TD*%
D10*
%TO.P,J4,1,Pin_1_1*%
%TO.N,GND*%
X171715000Y-44995000D03*
D17*
%TO.P,J4,2,Pin_2_2*%
%TO.N,+3V3*%
X171715000Y-47535000D03*
%TO.P,J4,3,Pin_3_3*%
%TO.N,/I2C0_SCL*%
X171715000Y-50075000D03*
%TO.P,J4,4,Pin_4_4*%
%TO.N,/I2C0_SDA*%
X171715000Y-52615000D03*
%TD*%
D10*
%TO.P,J3,1,Pin_1_1*%
%TO.N,/SWCLK*%
X169945000Y-78705000D03*
D17*
%TO.P,J3,2,Pin_2_2*%
%TO.N,GND*%
X169945000Y-81245000D03*
%TO.P,J3,3,Pin_3_3*%
%TO.N,/SWD*%
X169945000Y-83785000D03*
%TD*%
D18*
%TO.P,J2,A1,GND_A1*%
%TO.N,GND*%
X160075000Y-59825000D03*
%TO.P,J2,A4,VBUS_A4*%
%TO.N,VBUS*%
X160925000Y-59825000D03*
%TO.P,J2,A5,CC1_A5*%
%TO.N,Net-(J2-CC1)*%
X161775000Y-59825000D03*
%TO.P,J2,A6,D+_A6*%
%TO.N,Net-(J2-D+-PadA6)*%
X162625000Y-59825000D03*
%TO.P,J2,A7,D-_A7*%
%TO.N,Net-(J2-D--PadA7)*%
X163475000Y-59825000D03*
%TO.P,J2,A8,SBU1_A8*%
%TO.N,unconnected-(J2-SBU1-PadA8)*%
X164325000Y-59825000D03*
%TO.P,J2,A9,VBUS_A9*%
%TO.N,VBUS*%
X165175000Y-59825000D03*
%TO.P,J2,A12,GND_A12*%
%TO.N,GND*%
X166025000Y-59825000D03*
%TO.P,J2,B1,GND_B1*%
X166025000Y-61175000D03*
%TO.P,J2,B4,VBUS_B4*%
%TO.N,VBUS*%
X165175000Y-61175000D03*
%TO.P,J2,B5,CC2_B5*%
%TO.N,Net-(J2-CC2)*%
X164325000Y-61175000D03*
%TO.P,J2,B6,D+_B6*%
%TO.N,Net-(J2-D+-PadA6)*%
X163475000Y-61175000D03*
%TO.P,J2,B7,D-_B7*%
%TO.N,Net-(J2-D--PadA7)*%
X162625000Y-61175000D03*
%TO.P,J2,B8,SBU2_B8*%
%TO.N,unconnected-(J2-SBU2-PadB8)*%
X161775000Y-61175000D03*
%TO.P,J2,B9,VBUS_B9*%
%TO.N,VBUS*%
X160925000Y-61175000D03*
%TO.P,J2,B12,GND_B12*%
%TO.N,GND*%
X160075000Y-61175000D03*
D19*
%TO.P,J2,SH,SHIELD_SH*%
X158725000Y-60805000D03*
D20*
X158725000Y-64185000D03*
D19*
X167375000Y-60805000D03*
D20*
X167375000Y-64185000D03*
%TD*%
D21*
%TO.P,J1,1,Pin_1_1*%
%TO.N,GND*%
X138975000Y-82935000D03*
D22*
%TO.P,J1,2,Pin_2_2*%
%TO.N,/Battery*%
X141475000Y-82935000D03*
%TD*%
M02*
