%TF.GenerationSoftware,KiCad,Pcbnew,10.0.4*%
%TF.CreationDate,2026-07-24T22:46:46+12:00*%
%TF.ProjectId,50x50 2 Layer,35307835-3020-4322-904c-617965722e6b,B*%
%TF.SameCoordinates,Original*%
%TF.FileFunction,Legend,Bot*%
%TF.FilePolarity,Positive*%
%FSLAX46Y46*%
G04 Gerber Fmt 4.6, Leading zero omitted, Abs format (unit mm)*
G04 Created by KiCad (PCBNEW 10.0.4) date 2026-07-24 22:46:46*
%MOMM*%
%LPD*%
G01*
G04 APERTURE LIST*
G04 Aperture macros list*
%AMRoundRect*
0 Rectangle with rounded corners*
0 $1 Rounding radius*
0 $2 $3 $4 $5 $6 $7 $8 $9 X,Y pos of 4 corners*
0 Add a 4 corners polygon primitive as box body*
4,1,4,$2,$3,$4,$5,$6,$7,$8,$9,$2,$3,0*
0 Add four circle primitives for the rounded corners*
1,1,$1+$1,$2,$3*
1,1,$1+$1,$4,$5*
1,1,$1+$1,$6,$7*
1,1,$1+$1,$8,$9*
0 Add four rect primitives between the rounded corners*
20,1,$1+$1,$2,$3,$4,$5,0*
20,1,$1+$1,$4,$5,$6,$7,0*
20,1,$1+$1,$6,$7,$8,$9,0*
20,1,$1+$1,$8,$9,$2,$3,0*%
G04 Aperture macros list end*
%ADD10R,1.700000X1.700000*%
%ADD11O,1.700000X1.700000*%
%ADD12C,1.524000*%
%ADD13O,1.200000X1.800000*%
%ADD14O,1.200000X2.000000*%
%ADD15C,1.700000*%
%ADD16C,0.700000*%
%ADD17O,0.900000X2.400000*%
%ADD18O,0.900000X1.700000*%
%ADD19RoundRect,0.250000X-0.600000X-0.750000X0.600000X-0.750000X0.600000X0.750000X-0.600000X0.750000X0*%
%ADD20O,1.700000X2.000000*%
%ADD21C,3.200000*%
G04 APERTURE END LIST*
%LPC*%
D10*
%TO.C,U5*%
X137879000Y-71144000D03*
D11*
X137879000Y-73684000D03*
X137879000Y-76224000D03*
X153119000Y-76224000D03*
X153119000Y-73684000D03*
D10*
X153119000Y-71144000D03*
%TD*%
D12*
%TO.C,SW4*%
X160450000Y-72285000D03*
X162450000Y-72285000D03*
X164450000Y-72285000D03*
D13*
X158350000Y-72285000D03*
X166550000Y-72285000D03*
%TD*%
D14*
%TO.C,SW1*%
X158350000Y-79185000D03*
X166550000Y-79185000D03*
D12*
X164450000Y-77935000D03*
X162450000Y-77935000D03*
X160450000Y-77935000D03*
X164450000Y-80435000D03*
X162450000Y-80435000D03*
X160450000Y-80435000D03*
%TD*%
D10*
%TO.C,J4*%
X171715000Y-44995000D03*
D15*
X171715000Y-47535000D03*
X171715000Y-50075000D03*
X171715000Y-52615000D03*
%TD*%
D10*
%TO.C,J3*%
X169945000Y-78705000D03*
D15*
X169945000Y-81245000D03*
X169945000Y-83785000D03*
%TD*%
D16*
%TO.C,J2*%
X160075000Y-59825000D03*
X160925000Y-59825000D03*
X161775000Y-59825000D03*
X162625000Y-59825000D03*
X163475000Y-59825000D03*
X164325000Y-59825000D03*
X165175000Y-59825000D03*
X166025000Y-59825000D03*
X166025000Y-61175000D03*
X165175000Y-61175000D03*
X164325000Y-61175000D03*
X163475000Y-61175000D03*
X162625000Y-61175000D03*
X161775000Y-61175000D03*
X160925000Y-61175000D03*
X160075000Y-61175000D03*
D17*
X158725000Y-60805000D03*
D18*
X158725000Y-64185000D03*
D17*
X167375000Y-60805000D03*
D18*
X167375000Y-64185000D03*
%TD*%
D19*
%TO.C,J1*%
X138975000Y-82935000D03*
D20*
X141475000Y-82935000D03*
%TD*%
D21*
%TO.C,H4*%
X77861000Y-41513000D03*
%TD*%
%TO.C,H1*%
X120787000Y-41513000D03*
%TD*%
%TO.C,H3*%
X77861000Y-84439000D03*
%TD*%
%TO.C,H2*%
X120787000Y-84293000D03*
%TD*%
%LPD*%
M02*
