M48
; DRILL file KiCad 10.0.4 date 2026-07-24T00:42:56
; FORMAT={-:-/ absolute / inch / decimal}
; #@! TF.CreationDate,2026-07-24T00:42:56+12:00
; #@! TF.GenerationSoftware,Kicad,Pcbnew,10.0.4
; #@! TF.FileFunction,Plated,1,2,PTH
FMAT,2
INCH
; #@! TA.AperFunction,Plated,PTH,ComponentDrill
T1C0.0157
; #@! TA.AperFunction,Plated,PTH,ComponentDrill
T2C0.0236
; #@! TA.AperFunction,Plated,PTH,ComponentDrill
T3C0.0236
; #@! TA.AperFunction,Plated,PTH,ComponentDrill
T4C0.0315
; #@! TA.AperFunction,Plated,PTH,ComponentDrill
T5C0.0360
; #@! TA.AperFunction,Plated,PTH,ComponentDrill
T6C0.0394
%
G90
G05
T1
X3.1173Y-2.3262
X3.1173Y-2.3596
X3.1173Y-2.3931
X3.1173Y-2.4266
X3.1173Y-2.46
X3.1173Y-2.4935
X3.1173Y-2.527
X3.1173Y-2.5604
X3.1704Y-2.3262
X3.1704Y-2.3596
X3.1704Y-2.3931
X3.1704Y-2.4266
X3.1704Y-2.46
X3.1704Y-2.4935
X3.1704Y-2.527
X3.1704Y-2.5604
T5
X3.685Y-3.3465
X3.6929Y-3.0276
X3.6929Y-3.126
X3.7638Y-3.3465
X3.7717Y-3.0276
X3.7717Y-3.126
X3.8425Y-3.3465
X3.8504Y-3.0276
X3.8504Y-3.126
T6
X3.3287Y-3.2943
X3.4272Y-3.2943
X4.1181Y-1.5795
X4.1181Y-1.6795
X4.1181Y-1.7795
X4.1181Y-1.8795
X4.378Y-2.2524
X4.378Y-2.3524
X4.378Y-2.4524
X4.5693Y-2.4923
X4.5693Y-3.0923
X4.6693Y-2.4923
X4.6693Y-3.0923
X4.7693Y-2.4923
X4.7693Y-3.0923
T2
G00X3.6102Y-3.061
M15
G01X3.6102Y-3.0925
M16
G05
G00X3.9331Y-3.061
M15
G01X3.9331Y-3.0925
M16
G05
T3
G00X3.0145Y-2.273
M15
G01X2.983Y-2.273
M16
G05
G00X3.0145Y-2.6136
M15
G01X2.983Y-2.6136
M16
G05
G00X3.1614Y-2.273
M15
G01X3.1023Y-2.273
M16
G05
G00X3.1614Y-2.6136
M15
G01X3.1023Y-2.6136
M16
G05
T4
G00X3.6024Y-3.3346
M15
G01X3.6024Y-3.3583
M16
G05
G00X3.9252Y-3.3346
M15
G01X3.9252Y-3.3583
M16
G05
M30
