%TF.GenerationSoftware,KiCad,Pcbnew,10.0.4*%
%TF.CreationDate,2026-07-24T00:42:56+12:00*%
%TF.ProjectId,50x50 2 Layer,35307835-3020-4322-904c-617965722e6b,B*%
%TF.SameCoordinates,Original*%
%TF.FileFunction,Legend,Bot*%
%TF.FilePolarity,Positive*%
%FSLAX46Y46*%
G04 Gerber Fmt 4.6, Leading zero omitted, Abs format (unit mm)*
G04 Created by KiCad (PCBNEW 10.0.4) date 2026-07-24 00:42:56*
%MOMM*%
%LPD*%
G01*
G04 APERTURE LIST*
G04 Aperture macros list*
%AMRoundRect*
0 Rectangle with rounded corners*
0 $1 Rounding radius*
0 $2 $3 $4 $5 $6 $7 $8 $9 X,Y pos of 4 corners*
0 Add a 4 corners polygon primitive as box body*
4,1,4,$2,$3,$4,$5,$6,$7,$8,$9,$2,$3,0*
0 Add four circle primitives for the rounded corners*
1,1,$1+$1,$2,$3*
1,1,$1+$1,$4,$5*
1,1,$1+$1,$6,$7*
1,1,$1+$1,$8,$9*
0 Add four rect primitives between the rounded corners*
20,1,$1+$1,$2,$3,$4,$5,0*
20,1,$1+$1,$4,$5,$6,$7,0*
20,1,$1+$1,$6,$7,$8,$9,0*
20,1,$1+$1,$8,$9,$2,$3,0*%
G04 Aperture macros list end*
%ADD10R,1.700000X1.700000*%
%ADD11O,1.700000X1.700000*%
%ADD12C,0.700000*%
%ADD13O,2.400000X0.900000*%
%ADD14O,1.700000X0.900000*%
%ADD15C,1.524000*%
%ADD16O,1.200000X1.800000*%
%ADD17O,1.200000X2.000000*%
%ADD18C,1.700000*%
%ADD19RoundRect,0.250000X-0.600000X-0.750000X0.600000X-0.750000X0.600000X0.750000X-0.600000X0.750000X0*%
%ADD20O,1.700000X2.000000*%
%ADD21C,3.200000*%
G04 APERTURE END LIST*
%LPC*%
D10*
%TO.C,U5*%
X121140000Y-63304000D03*
D11*
X118600000Y-63304000D03*
X116060000Y-63304000D03*
X116060000Y-78544000D03*
X118600000Y-78544000D03*
D10*
X121140000Y-78544000D03*
%TD*%
D12*
%TO.C,J2*%
X80529000Y-59085000D03*
X80529000Y-59935000D03*
X80529000Y-60785000D03*
X80529000Y-61635000D03*
X80529000Y-62485000D03*
X80529000Y-63335000D03*
X80529000Y-64185000D03*
X80529000Y-65035000D03*
X79179000Y-65035000D03*
X79179000Y-64185000D03*
X79179000Y-63335000D03*
X79179000Y-62485000D03*
X79179000Y-61635000D03*
X79179000Y-60785000D03*
X79179000Y-59935000D03*
X79179000Y-59085000D03*
D13*
X79549000Y-57735000D03*
D14*
X76169000Y-57735000D03*
D13*
X79549000Y-66385000D03*
D14*
X76169000Y-66385000D03*
%TD*%
D15*
%TO.C,SW4*%
X93600000Y-85000000D03*
X95600000Y-85000000D03*
X97600000Y-85000000D03*
D16*
X91500000Y-85000000D03*
X99700000Y-85000000D03*
%TD*%
D17*
%TO.C,SW1*%
X91700000Y-78150000D03*
X99900000Y-78150000D03*
D15*
X97800000Y-76900000D03*
X95800000Y-76900000D03*
X93800000Y-76900000D03*
X97800000Y-79400000D03*
X95800000Y-79400000D03*
X93800000Y-79400000D03*
%TD*%
D10*
%TO.C,J4*%
X104600000Y-40120000D03*
D18*
X104600000Y-42660000D03*
X104600000Y-45200000D03*
X104600000Y-47740000D03*
%TD*%
D10*
%TO.C,J3*%
X111200000Y-57210000D03*
D18*
X111200000Y-59750000D03*
X111200000Y-62290000D03*
%TD*%
D19*
%TO.C,J1*%
X84550000Y-83675000D03*
D20*
X87050000Y-83675000D03*
%TD*%
D21*
%TO.C,H4*%
X77861000Y-41513000D03*
%TD*%
%TO.C,H1*%
X120787000Y-41513000D03*
%TD*%
%TO.C,H3*%
X77861000Y-84439000D03*
%TD*%
%TO.C,H2*%
X120787000Y-84293000D03*
%TD*%
%LPD*%
M02*
