%TF.GenerationSoftware,KiCad,Pcbnew,10.0.4*%
%TF.CreationDate,2026-07-24T22:46:46+12:00*%
%TF.ProjectId,50x50 2 Layer,35307835-3020-4322-904c-617965722e6b,B*%
%TF.SameCoordinates,Original*%
%TF.FileFunction,Copper,L1,Top*%
%TF.FilePolarity,Positive*%
%FSLAX46Y46*%
G04 Gerber Fmt 4.6, Leading zero omitted, Abs format (unit mm)*
G04 Created by KiCad (PCBNEW 10.0.4) date 2026-07-24 22:46:46*
%MOMM*%
%LPD*%
G01*
G04 APERTURE LIST*
G04 Aperture macros list*
%AMRoundRect*
0 Rectangle with rounded corners*
0 $1 Rounding radius*
0 $2 $3 $4 $5 $6 $7 $8 $9 X,Y pos of 4 corners*
0 Add a 4 corners polygon primitive as box body*
4,1,4,$2,$3,$4,$5,$6,$7,$8,$9,$2,$3,0*
0 Add four circle primitives for the rounded corners*
1,1,$1+$1,$2,$3*
1,1,$1+$1,$4,$5*
1,1,$1+$1,$6,$7*
1,1,$1+$1,$8,$9*
0 Add four rect primitives between the rounded corners*
20,1,$1+$1,$2,$3,$4,$5,0*
20,1,$1+$1,$4,$5,$6,$7,0*
20,1,$1+$1,$6,$7,$8,$9,0*
20,1,$1+$1,$8,$9,$2,$3,0*%
G04 Aperture macros list end*
%TA.AperFunction,SMDPad,CuDef*%
%ADD10RoundRect,0.237500X-0.250000X-0.237500X0.250000X-0.237500X0.250000X0.237500X-0.250000X0.237500X0*%
%TD*%
%TA.AperFunction,SMDPad,CuDef*%
%ADD11RoundRect,0.243750X-0.243750X-0.456250X0.243750X-0.456250X0.243750X0.456250X-0.243750X0.456250X0*%
%TD*%
%TA.AperFunction,SMDPad,CuDef*%
%ADD12RoundRect,0.250000X-0.250000X-0.475000X0.250000X-0.475000X0.250000X0.475000X-0.250000X0.475000X0*%
%TD*%
%TA.AperFunction,SMDPad,CuDef*%
%ADD13RoundRect,0.250000X-0.800000X-0.650000X0.800000X-0.650000X0.800000X0.650000X-0.800000X0.650000X0*%
%TD*%
%TA.AperFunction,ComponentPad*%
%ADD14R,1.700000X1.700000*%
%TD*%
%TA.AperFunction,ComponentPad*%
%ADD15O,1.700000X1.700000*%
%TD*%
%TA.AperFunction,SMDPad,CuDef*%
%ADD16RoundRect,0.050000X-0.350000X-0.050000X0.350000X-0.050000X0.350000X0.050000X-0.350000X0.050000X0*%
%TD*%
%TA.AperFunction,SMDPad,CuDef*%
%ADD17RoundRect,0.050000X-0.050000X-0.350000X0.050000X-0.350000X0.050000X0.350000X-0.050000X0.350000X0*%
%TD*%
%TA.AperFunction,HeatsinkPad*%
%ADD18C,0.500000*%
%TD*%
%TA.AperFunction,HeatsinkPad*%
%ADD19R,3.400000X3.400000*%
%TD*%
%TA.AperFunction,SMDPad,CuDef*%
%ADD20RoundRect,0.150000X-0.512500X-0.150000X0.512500X-0.150000X0.512500X0.150000X-0.512500X0.150000X0*%
%TD*%
%TA.AperFunction,SMDPad,CuDef*%
%ADD21RoundRect,0.162500X-0.650000X-0.162500X0.650000X-0.162500X0.650000X0.162500X-0.650000X0.162500X0*%
%TD*%
%TA.AperFunction,ComponentPad*%
%ADD22C,1.524000*%
%TD*%
%TA.AperFunction,ComponentPad*%
%ADD23O,1.200000X1.800000*%
%TD*%
%TA.AperFunction,SMDPad,CuDef*%
%ADD24RoundRect,0.250000X-0.275000X-0.750000X0.275000X-0.750000X0.275000X0.750000X-0.275000X0.750000X0*%
%TD*%
%TA.AperFunction,ComponentPad*%
%ADD25O,1.200000X2.000000*%
%TD*%
%TA.AperFunction,SMDPad,CuDef*%
%ADD26RoundRect,0.237500X-0.300000X-0.237500X0.300000X-0.237500X0.300000X0.237500X-0.300000X0.237500X0*%
%TD*%
%TA.AperFunction,SMDPad,CuDef*%
%ADD27RoundRect,0.150000X-0.587500X-0.150000X0.587500X-0.150000X0.587500X0.150000X-0.587500X0.150000X0*%
%TD*%
%TA.AperFunction,SMDPad,CuDef*%
%ADD28R,1.000000X1.600000*%
%TD*%
%TA.AperFunction,ComponentPad*%
%ADD29C,1.700000*%
%TD*%
%TA.AperFunction,ComponentPad*%
%ADD30C,0.700000*%
%TD*%
%TA.AperFunction,ComponentPad*%
%ADD31O,0.900000X2.400000*%
%TD*%
%TA.AperFunction,ComponentPad*%
%ADD32O,0.900000X1.700000*%
%TD*%
%TA.AperFunction,ComponentPad*%
%ADD33RoundRect,0.250000X-0.600000X-0.750000X0.600000X-0.750000X0.600000X0.750000X-0.600000X0.750000X0*%
%TD*%
%TA.AperFunction,ComponentPad*%
%ADD34O,1.700000X2.000000*%
%TD*%
%TA.AperFunction,SMDPad,CuDef*%
%ADD35RoundRect,0.218750X-0.218750X-0.256250X0.218750X-0.256250X0.218750X0.256250X-0.218750X0.256250X0*%
%TD*%
%TA.AperFunction,SMDPad,CuDef*%
%ADD36RoundRect,0.090000X-0.660000X-0.360000X0.660000X-0.360000X0.660000X0.360000X-0.660000X0.360000X0*%
%TD*%
%TA.AperFunction,SMDPad,CuDef*%
%ADD37RoundRect,0.250000X-1.000000X-0.650000X1.000000X-0.650000X1.000000X0.650000X-1.000000X0.650000X0*%
%TD*%
%TA.AperFunction,SMDPad,CuDef*%
%ADD38R,1.300000X3.400000*%
%TD*%
G04 APERTURE END LIST*
D10*
%TO.P,R12,1*%
%TO.N,+3V3*%
X178542500Y-73735000D03*
%TO.P,R12,2*%
%TO.N,/VREG_AVDD*%
X180367500Y-73735000D03*
%TD*%
D11*
%TO.P,D10,1,K_1*%
%TO.N,Net-(D10-K)*%
X158357500Y-56945000D03*
%TO.P,D10,2,A_2*%
%TO.N,/LED_GREEN*%
X160232500Y-56945000D03*
%TD*%
%TO.P,D9,1,K_1*%
%TO.N,Net-(D9-K)*%
X158357500Y-54355000D03*
%TO.P,D9,2,A_2*%
%TO.N,/LED_YELLOW*%
X160232500Y-54355000D03*
%TD*%
%TO.P,D8,1,K_1*%
%TO.N,Net-(D8-K)*%
X158357500Y-51765000D03*
%TO.P,D8,2,A_2*%
%TO.N,/LED_RED*%
X160232500Y-51765000D03*
%TD*%
%TO.P,D5,1,K_1*%
%TO.N,Net-(D5-K)*%
X158357500Y-49175000D03*
%TO.P,D5,2,A_2*%
%TO.N,+3V3*%
X160232500Y-49175000D03*
%TD*%
%TO.P,D4,1,K_1*%
%TO.N,Net-(D4-K)*%
X158357500Y-46585000D03*
%TO.P,D4,2,A_2*%
%TO.N,Net-(D4-A)*%
X160232500Y-46585000D03*
%TD*%
%TO.P,D1,1,K_1*%
%TO.N,Net-(D1-K)*%
X158357500Y-43995000D03*
%TO.P,D1,2,A_2*%
%TO.N,Net-(D1-A)*%
X160232500Y-43995000D03*
%TD*%
D12*
%TO.P,C6,1*%
%TO.N,+3V3*%
X136725000Y-56505000D03*
%TO.P,C6,2*%
%TO.N,GND*%
X138625000Y-56505000D03*
%TD*%
%TO.P,C3,1*%
%TO.N,VOUT*%
X136725000Y-48975000D03*
%TO.P,C3,2*%
%TO.N,GND*%
X138625000Y-48975000D03*
%TD*%
D13*
%TO.P,Y1,1,1_1*%
%TO.N,/XIN*%
X175880000Y-55820000D03*
%TO.P,Y1,2,2_2*%
%TO.N,GND*%
X178780000Y-55820000D03*
%TO.P,Y1,3,3_3*%
%TO.N,Net-(C8-Pad1)*%
X178780000Y-53520000D03*
%TO.P,Y1,4,4_4*%
%TO.N,GND*%
X175880000Y-53520000D03*
%TD*%
D14*
%TO.P,U5,1,SCL_1*%
%TO.N,/I2C1_SCL*%
X137879000Y-71144000D03*
D15*
%TO.P,U5,2,INT_1_2*%
%TO.N,INT_1*%
X137879000Y-73684000D03*
%TO.P,U5,3,SDA_3*%
%TO.N,/I2C1_SDA*%
X137879000Y-76224000D03*
%TO.P,U5,4,GND_4*%
%TO.N,GND*%
X153119000Y-76224000D03*
%TO.P,U5,5*%
%TO.N,unconnected-(U5-Pad5)*%
X153119000Y-73684000D03*
D14*
%TO.P,U5,6,+3V3_6*%
%TO.N,+3V3*%
X153119000Y-71144000D03*
%TD*%
D16*
%TO.P,U4,1,IOVDD_1*%
%TO.N,+3V3*%
X173790000Y-78235000D03*
%TO.P,U4,2,GPIO0_2*%
%TO.N,USB_DET*%
X173790000Y-78635000D03*
%TO.P,U4,3,GPIO1_3*%
%TO.N,/LED_RGB*%
X173790000Y-79035000D03*
%TO.P,U4,4,GPIO2_4*%
%TO.N,/BUZZER*%
X173790000Y-79435000D03*
%TO.P,U4,5,GPIO3_5*%
%TO.N,/GPIO_3*%
X173790000Y-79835000D03*
%TO.P,U4,6,DVDD_6*%
%TO.N,+1V1*%
X173790000Y-80235000D03*
%TO.P,U4,7,GPIO4_7*%
%TO.N,/GPIO_4*%
X173790000Y-80635000D03*
%TO.P,U4,8,GPIO5_8*%
%TO.N,/GPIO_5*%
X173790000Y-81035000D03*
%TO.P,U4,9,GPIO6_9*%
%TO.N,/GPIO_6*%
X173790000Y-81435000D03*
%TO.P,U4,10,GPIO7_10*%
%TO.N,/GPIO_7*%
X173790000Y-81835000D03*
%TO.P,U4,11,IOVDD_11*%
%TO.N,+3V3*%
X173790000Y-82235000D03*
%TO.P,U4,12,GPIO8_12*%
%TO.N,INT_1*%
X173790000Y-82635000D03*
%TO.P,U4,13,GPIO9_13*%
%TO.N,/LED_RED*%
X173790000Y-83035000D03*
%TO.P,U4,14,GPIO10_14*%
%TO.N,/LED_YELLOW*%
X173790000Y-83435000D03*
%TO.P,U4,15,GPIO11_15*%
%TO.N,/LED_GREEN*%
X173790000Y-83835000D03*
D17*
%TO.P,U4,16,GPIO12_16*%
%TO.N,/SPI1_MISO*%
X174440000Y-84485000D03*
%TO.P,U4,17,GPIO13_17*%
%TO.N,/SPI1_CSn*%
X174840000Y-84485000D03*
%TO.P,U4,18,GPIO14_18*%
%TO.N,/SPI1_SCK*%
X175240000Y-84485000D03*
%TO.P,U4,19,GPIO15_19*%
%TO.N,/SPI1_MOSI*%
X175640000Y-84485000D03*
%TO.P,U4,20,IOVDD_20*%
%TO.N,+3V3*%
X176040000Y-84485000D03*
%TO.P,U4,21,XIN_21*%
%TO.N,/XIN*%
X176440000Y-84485000D03*
%TO.P,U4,22,XOUT_22*%
%TO.N,/XOUT*%
X176840000Y-84485000D03*
%TO.P,U4,23,DVDD_23*%
%TO.N,+1V1*%
X177240000Y-84485000D03*
%TO.P,U4,24,SWCLK_24*%
%TO.N,/SWCLK*%
X177640000Y-84485000D03*
%TO.P,U4,25,SWD_25*%
%TO.N,/SWD*%
X178040000Y-84485000D03*
%TO.P,U4,26,RUN_26*%
%TO.N,/RUN*%
X178440000Y-84485000D03*
%TO.P,U4,27,GPIO16_27*%
%TO.N,/SPI0_MISO*%
X178840000Y-84485000D03*
%TO.P,U4,28,GPIO17_28*%
%TO.N,/SPI0_CSn*%
X179240000Y-84485000D03*
%TO.P,U4,29,GPIO18_29*%
%TO.N,/SPI0_SCK*%
X179640000Y-84485000D03*
%TO.P,U4,30,IOVDD_30*%
%TO.N,+3V3*%
X180040000Y-84485000D03*
D16*
%TO.P,U4,31,GPIO19_31*%
%TO.N,/SPI0_MOSI*%
X180690000Y-83835000D03*
%TO.P,U4,32,GPIO20_32*%
%TO.N,/CLK_GPIN0*%
X180690000Y-83435000D03*
%TO.P,U4,33,GPIO21_33*%
%TO.N,/CLK_GPOUT0*%
X180690000Y-83035000D03*
%TO.P,U4,34,GPIO22_34*%
%TO.N,/I2C1_SDA*%
X180690000Y-82635000D03*
%TO.P,U4,35,GPIO23_35*%
%TO.N,/I2C1_SCL*%
X180690000Y-82235000D03*
%TO.P,U4,36,GPIO24_36*%
%TO.N,/I2C0_SDA*%
X180690000Y-81835000D03*
%TO.P,U4,37,GPIO25_37*%
%TO.N,/I2C0_SCL*%
X180690000Y-81435000D03*
%TO.P,U4,38,IOVDD_38*%
%TO.N,+3V3*%
X180690000Y-81035000D03*
%TO.P,U4,39,DVDD_39*%
%TO.N,+1V1*%
X180690000Y-80635000D03*
%TO.P,U4,40,GPIO26_ADC0_40*%
%TO.N,/ADC_0*%
X180690000Y-80235000D03*
%TO.P,U4,41,GPIO27_ADC1_41*%
%TO.N,/ADC_1*%
X180690000Y-79835000D03*
%TO.P,U4,42,GPIO28_ADC2_42*%
%TO.N,/ADC_2*%
X180690000Y-79435000D03*
%TO.P,U4,43,GPIO29_ADC3_43*%
%TO.N,/ADC_3*%
X180690000Y-79035000D03*
%TO.P,U4,44,ADC_AVDD_44*%
%TO.N,+3V3*%
X180690000Y-78635000D03*
%TO.P,U4,45,IOVDD_45*%
X180690000Y-78235000D03*
D17*
%TO.P,U4,46,VREG_AVDD_46*%
%TO.N,/VREG_AVDD*%
X180040000Y-77585000D03*
%TO.P,U4,47,VREG_PGND_47*%
%TO.N,GND*%
X179640000Y-77585000D03*
%TO.P,U4,48,VREG_LX_48*%
%TO.N,/VREG_LX*%
X179240000Y-77585000D03*
%TO.P,U4,49,VREG_VIN_49*%
%TO.N,+3V3*%
X178840000Y-77585000D03*
%TO.P,U4,50,VREG_FB_50*%
%TO.N,+1V1*%
X178440000Y-77585000D03*
%TO.P,U4,51,USB_DM_51*%
%TO.N,Net-(U4-USB_DM)*%
X178040000Y-77585000D03*
%TO.P,U4,52,USB_DP_52*%
%TO.N,Net-(U4-USB_DP)*%
X177640000Y-77585000D03*
%TO.P,U4,53,USB_OTP_VDD_53*%
%TO.N,+3V3*%
X177240000Y-77585000D03*
%TO.P,U4,54,QSPI_IOVDD_54*%
X176840000Y-77585000D03*
%TO.P,U4,55,QSPI_SD3_55*%
%TO.N,unconnected-(U4-QSPI_SD3-Pad55)*%
X176440000Y-77585000D03*
%TO.P,U4,56,QSPI_SCLK_56*%
%TO.N,unconnected-(U4-QSPI_SCLK-Pad56)*%
X176040000Y-77585000D03*
%TO.P,U4,57,QSPI_SD0_57*%
%TO.N,unconnected-(U4-QSPI_SD0-Pad57)*%
X175640000Y-77585000D03*
%TO.P,U4,58,QSPI_SD2_58*%
%TO.N,unconnected-(U4-QSPI_SD2-Pad58)*%
X175240000Y-77585000D03*
%TO.P,U4,59,QSPI_SD1_59*%
%TO.N,unconnected-(U4-QSPI_SD1-Pad59)*%
X174840000Y-77585000D03*
%TO.P,U4,60,QSPI_SS_60*%
%TO.N,/QSPI_SS*%
X174440000Y-77585000D03*
D18*
%TO.P,U4,61,GND_61*%
%TO.N,GND*%
X175790000Y-79585000D03*
X175790000Y-81035000D03*
X175790000Y-82485000D03*
X177240000Y-79585000D03*
X177240000Y-81035000D03*
D19*
X177240000Y-81035000D03*
D18*
X177240000Y-82485000D03*
X178690000Y-79585000D03*
X178690000Y-81035000D03*
X178690000Y-82485000D03*
%TD*%
D20*
%TO.P,U3,1,GND_1*%
%TO.N,GND*%
X158687500Y-84535000D03*
%TO.P,U3,2,VO_2*%
%TO.N,+3V3*%
X158687500Y-86435000D03*
%TO.P,U3,3,VI_3*%
%TO.N,VOUT*%
X160962500Y-85485000D03*
%TD*%
%TO.P,U2,1,I/O1_1*%
%TO.N,Net-(J2-D--PadA7)*%
X163837500Y-84710000D03*
%TO.P,U2,2,GND_2*%
%TO.N,GND*%
X163837500Y-85660000D03*
%TO.P,U2,3,I/O2_3*%
%TO.N,Net-(J2-D+-PadA6)*%
X163837500Y-86610000D03*
%TO.P,U2,4,I/O2_4*%
%TO.N,D+*%
X166112500Y-86610000D03*
%TO.P,U2,5,VBUS_5*%
%TO.N,VBUS*%
X166112500Y-85660000D03*
%TO.P,U2,6,I/O1_6*%
%TO.N,D-*%
X166112500Y-84710000D03*
%TD*%
D21*
%TO.P,U1,1,~{CS}_1*%
%TO.N,/SPI1_CSn*%
X169237500Y-71085000D03*
%TO.P,U1,2,DO/IO_{1}_2*%
%TO.N,/SPI1_MISO*%
X169237500Y-72355000D03*
%TO.P,U1,3,~{WP}/IO_{2}_3*%
%TO.N,+3V3*%
X169237500Y-73625000D03*
%TO.P,U1,4,GND_4*%
%TO.N,GND*%
X169237500Y-74895000D03*
%TO.P,U1,5,DI/IO_{0}_5*%
%TO.N,/SPI1_MOSI*%
X176412500Y-74895000D03*
%TO.P,U1,6,CLK_6*%
%TO.N,/SPI1_SCK*%
X176412500Y-73625000D03*
%TO.P,U1,7,~{HOLD}/~{RESET}/IO_{3}_7*%
%TO.N,+3V3*%
X176412500Y-72355000D03*
%TO.P,U1,8,VCC_8*%
X176412500Y-71085000D03*
%TD*%
D22*
%TO.P,SW4,1,A_1*%
%TO.N,VOUT*%
X160450000Y-72285000D03*
%TO.P,SW4,2,B_2*%
%TO.N,Net-(SW1A-B)*%
X162450000Y-72285000D03*
%TO.P,SW4,3,C_3*%
%TO.N,unconnected-(SW4-C-Pad3)*%
X164450000Y-72285000D03*
D23*
%TO.P,SW4,4*%
%TO.N,N/C*%
X158350000Y-72285000D03*
%TO.P,SW4,5*%
X166550000Y-72285000D03*
%TD*%
D24*
%TO.P,SW3,1,1_1*%
%TO.N,Net-(R10-Pad1)*%
X146250000Y-86385000D03*
%TO.P,SW3,2,2_2*%
%TO.N,/RUN*%
X150700000Y-86385000D03*
%TD*%
%TO.P,SW2,1,1_1*%
%TO.N,GND*%
X146250000Y-81835000D03*
%TO.P,SW2,2,2_2*%
%TO.N,/~{USB_BOOT}*%
X150700000Y-81835000D03*
%TD*%
D25*
%TO.P,SW1,8*%
%TO.N,N/C*%
X158350000Y-79185000D03*
%TO.P,SW1,7*%
X166550000Y-79185000D03*
D22*
%TO.P,SW1,6,C_6*%
%TO.N,Net-(D4-A)*%
X164450000Y-77935000D03*
%TO.P,SW1,5,B_5*%
%TO.N,VOUT*%
X162450000Y-77935000D03*
%TO.P,SW1,4,A_4*%
%TO.N,Net-(D1-A)*%
X160450000Y-77935000D03*
%TO.P,SW1,3,C_3*%
%TO.N,VBUS*%
X164450000Y-80435000D03*
%TO.P,SW1,2,B_2*%
%TO.N,Net-(SW1A-B)*%
X162450000Y-80435000D03*
%TO.P,SW1,1,A_1*%
%TO.N,Net-(D2-K)*%
X160450000Y-80435000D03*
%TD*%
D10*
%TO.P,R27,1*%
%TO.N,+3V3*%
X154162500Y-53995000D03*
%TO.P,R27,2*%
%TO.N,Net-(BZ3--)*%
X155987500Y-53995000D03*
%TD*%
%TO.P,R26,1*%
%TO.N,Net-(Q2-B)*%
X154162500Y-51485000D03*
%TO.P,R26,2*%
%TO.N,/BUZZER*%
X155987500Y-51485000D03*
%TD*%
D26*
%TO.P,R23,1*%
%TO.N,Net-(D10-K)*%
X154212500Y-48975000D03*
%TO.P,R23,2*%
%TO.N,GND*%
X155937500Y-48975000D03*
%TD*%
%TO.P,R22,1*%
%TO.N,Net-(D9-K)*%
X154212500Y-46465000D03*
%TO.P,R22,2*%
%TO.N,GND*%
X155937500Y-46465000D03*
%TD*%
%TO.P,R21,1*%
%TO.N,Net-(D8-K)*%
X154212500Y-43955000D03*
%TO.P,R21,2*%
%TO.N,GND*%
X155937500Y-43955000D03*
%TD*%
%TO.P,R20,1*%
%TO.N,/I2C1_SDA*%
X149862500Y-66545000D03*
%TO.P,R20,2*%
%TO.N,+3V3*%
X151587500Y-66545000D03*
%TD*%
%TO.P,R19,1*%
%TO.N,/I2C0_SDA*%
X149862500Y-64035000D03*
%TO.P,R19,2*%
%TO.N,+3V3*%
X151587500Y-64035000D03*
%TD*%
%TO.P,R18,1*%
%TO.N,/I2C1_SCL*%
X149862500Y-61525000D03*
%TO.P,R18,2*%
%TO.N,+3V3*%
X151587500Y-61525000D03*
%TD*%
%TO.P,R17,1*%
%TO.N,/I2C0_SCL*%
X149862500Y-59015000D03*
%TO.P,R17,2*%
%TO.N,+3V3*%
X151587500Y-59015000D03*
%TD*%
D10*
%TO.P,R15,1*%
%TO.N,/USB_D-*%
X149812500Y-56505000D03*
%TO.P,R15,2*%
%TO.N,Net-(U4-USB_DM)*%
X151637500Y-56505000D03*
%TD*%
%TO.P,R14,1*%
%TO.N,/USB_D+*%
X149812500Y-53995000D03*
%TO.P,R14,2*%
%TO.N,Net-(U4-USB_DP)*%
X151637500Y-53995000D03*
%TD*%
%TO.P,R13,1*%
%TO.N,/QSPI_SS*%
X149812500Y-51485000D03*
%TO.P,R13,2*%
%TO.N,/~{USB_BOOT}*%
X151637500Y-51485000D03*
%TD*%
D26*
%TO.P,R11,1*%
%TO.N,Net-(D5-K)*%
X149862500Y-48975000D03*
%TO.P,R11,2*%
%TO.N,GND*%
X151587500Y-48975000D03*
%TD*%
D10*
%TO.P,R10,1*%
%TO.N,Net-(R10-Pad1)*%
X149812500Y-46465000D03*
%TO.P,R10,2*%
%TO.N,GND*%
X151637500Y-46465000D03*
%TD*%
%TO.P,R9,1*%
%TO.N,/XOUT*%
X149812500Y-43955000D03*
%TO.P,R9,2*%
%TO.N,Net-(C8-Pad1)*%
X151637500Y-43955000D03*
%TD*%
%TO.P,R8,1*%
%TO.N,USB_DET*%
X145462500Y-66545000D03*
%TO.P,R8,2*%
%TO.N,GND*%
X147287500Y-66545000D03*
%TD*%
%TO.P,R7,1*%
%TO.N,/SPI1_CSn*%
X145462500Y-64035000D03*
%TO.P,R7,2*%
%TO.N,+3V3*%
X147287500Y-64035000D03*
%TD*%
%TO.P,R6,1*%
%TO.N,GND*%
X145462500Y-61525000D03*
%TO.P,R6,2*%
%TO.N,Net-(J2-CC2)*%
X147287500Y-61525000D03*
%TD*%
D26*
%TO.P,R5,1*%
%TO.N,VBUS*%
X145512500Y-59015000D03*
%TO.P,R5,2*%
%TO.N,USB_DET*%
X147237500Y-59015000D03*
%TD*%
%TO.P,R4,1*%
%TO.N,Net-(D4-K)*%
X145512500Y-56505000D03*
%TO.P,R4,2*%
%TO.N,GND*%
X147237500Y-56505000D03*
%TD*%
D10*
%TO.P,R3,1*%
%TO.N,Net-(J2-CC1)*%
X145462500Y-53995000D03*
%TO.P,R3,2*%
%TO.N,GND*%
X147287500Y-53995000D03*
%TD*%
D26*
%TO.P,R2,1*%
%TO.N,Net-(D1-K)*%
X145512500Y-51485000D03*
%TO.P,R2,2*%
%TO.N,GND*%
X147237500Y-51485000D03*
%TD*%
D27*
%TO.P,Q2,1,B_1*%
%TO.N,Net-(Q2-B)*%
X153517500Y-80835000D03*
%TO.P,Q2,2,E_2*%
%TO.N,GND*%
X153517500Y-82735000D03*
%TO.P,Q2,3,C_3*%
%TO.N,Net-(BZ3--)*%
X155392500Y-81785000D03*
%TD*%
D28*
%TO.P,L1,2,2_2*%
%TO.N,/VREG_LX*%
X181000000Y-71315000D03*
%TO.P,L1,1,1_1*%
%TO.N,+1V1*%
X179000000Y-71315000D03*
%TD*%
D14*
%TO.P,J4,1,Pin_1_1*%
%TO.N,GND*%
X171715000Y-44995000D03*
D29*
%TO.P,J4,2,Pin_2_2*%
%TO.N,+3V3*%
X171715000Y-47535000D03*
%TO.P,J4,3,Pin_3_3*%
%TO.N,/I2C0_SCL*%
X171715000Y-50075000D03*
%TO.P,J4,4,Pin_4_4*%
%TO.N,/I2C0_SDA*%
X171715000Y-52615000D03*
%TD*%
D14*
%TO.P,J3,1,Pin_1_1*%
%TO.N,/SWCLK*%
X169945000Y-78705000D03*
D29*
%TO.P,J3,2,Pin_2_2*%
%TO.N,GND*%
X169945000Y-81245000D03*
%TO.P,J3,3,Pin_3_3*%
%TO.N,/SWD*%
X169945000Y-83785000D03*
%TD*%
D30*
%TO.P,J2,A1,GND_A1*%
%TO.N,GND*%
X160075000Y-59825000D03*
%TO.P,J2,A4,VBUS_A4*%
%TO.N,VBUS*%
X160925000Y-59825000D03*
%TO.P,J2,A5,CC1_A5*%
%TO.N,Net-(J2-CC1)*%
X161775000Y-59825000D03*
%TO.P,J2,A6,D+_A6*%
%TO.N,Net-(J2-D+-PadA6)*%
X162625000Y-59825000D03*
%TO.P,J2,A7,D-_A7*%
%TO.N,Net-(J2-D--PadA7)*%
X163475000Y-59825000D03*
%TO.P,J2,A8,SBU1_A8*%
%TO.N,unconnected-(J2-SBU1-PadA8)*%
X164325000Y-59825000D03*
%TO.P,J2,A9,VBUS_A9*%
%TO.N,VBUS*%
X165175000Y-59825000D03*
%TO.P,J2,A12,GND_A12*%
%TO.N,GND*%
X166025000Y-59825000D03*
%TO.P,J2,B1,GND_B1*%
X166025000Y-61175000D03*
%TO.P,J2,B4,VBUS_B4*%
%TO.N,VBUS*%
X165175000Y-61175000D03*
%TO.P,J2,B5,CC2_B5*%
%TO.N,Net-(J2-CC2)*%
X164325000Y-61175000D03*
%TO.P,J2,B6,D+_B6*%
%TO.N,Net-(J2-D+-PadA6)*%
X163475000Y-61175000D03*
%TO.P,J2,B7,D-_B7*%
%TO.N,Net-(J2-D--PadA7)*%
X162625000Y-61175000D03*
%TO.P,J2,B8,SBU2_B8*%
%TO.N,unconnected-(J2-SBU2-PadB8)*%
X161775000Y-61175000D03*
%TO.P,J2,B9,VBUS_B9*%
%TO.N,VBUS*%
X160925000Y-61175000D03*
%TO.P,J2,B12,GND_B12*%
%TO.N,GND*%
X160075000Y-61175000D03*
D31*
%TO.P,J2,SH,SHIELD_SH*%
X158725000Y-60805000D03*
D32*
X158725000Y-64185000D03*
D31*
X167375000Y-60805000D03*
D32*
X167375000Y-64185000D03*
%TD*%
D33*
%TO.P,J1,1,Pin_1_1*%
%TO.N,GND*%
X138975000Y-82935000D03*
D34*
%TO.P,J1,2,Pin_2_2*%
%TO.N,/Battery*%
X141475000Y-82935000D03*
%TD*%
D35*
%TO.P,F1,1*%
%TO.N,Net-(D2-A)*%
X173457500Y-86915000D03*
%TO.P,F1,2*%
%TO.N,/Battery*%
X175032500Y-86915000D03*
%TD*%
D36*
%TO.P,D7,1,VDD_1*%
%TO.N,+3V3*%
X162910000Y-50980000D03*
%TO.P,D7,2,DOUT_2*%
%TO.N,unconnected-(D7-DOUT-Pad2)*%
X162910000Y-54280000D03*
%TO.P,D7,3,VSS_3*%
%TO.N,GND*%
X167810000Y-54280000D03*
%TO.P,D7,4,DIN_4*%
%TO.N,Net-(D6-DOUT)*%
X167810000Y-50980000D03*
%TD*%
%TO.P,D6,1,VDD_1*%
%TO.N,+3V3*%
X162910000Y-44360000D03*
%TO.P,D6,2,DOUT_2*%
%TO.N,Net-(D6-DOUT)*%
X162910000Y-47660000D03*
%TO.P,D6,3,VSS_3*%
%TO.N,GND*%
X167810000Y-47660000D03*
%TO.P,D6,4,DIN_4*%
%TO.N,/LED_RGB*%
X167810000Y-44360000D03*
%TD*%
D37*
%TO.P,D3,1,A1_1*%
%TO.N,Net-(D2-K)*%
X176080000Y-49525000D03*
%TO.P,D3,2,A2_2*%
%TO.N,GND*%
X180080000Y-49525000D03*
%TD*%
%TO.P,D2,1,K_1*%
%TO.N,Net-(D2-K)*%
X176080000Y-44975000D03*
%TO.P,D2,2,A_2*%
%TO.N,Net-(D2-A)*%
X180080000Y-44975000D03*
%TD*%
D12*
%TO.P,C24,1*%
%TO.N,+3V3*%
X153275000Y-85515000D03*
%TO.P,C24,2*%
%TO.N,GND*%
X155175000Y-85515000D03*
%TD*%
D26*
%TO.P,C23,1*%
%TO.N,+3V3*%
X145512500Y-48975000D03*
%TO.P,C23,2*%
%TO.N,GND*%
X147237500Y-48975000D03*
%TD*%
%TO.P,C22,1*%
%TO.N,+3V3*%
X145512500Y-46465000D03*
%TO.P,C22,2*%
%TO.N,GND*%
X147237500Y-46465000D03*
%TD*%
%TO.P,C21,1*%
%TO.N,+3V3*%
X145512500Y-43955000D03*
%TO.P,C21,2*%
%TO.N,GND*%
X147237500Y-43955000D03*
%TD*%
%TO.P,C20,1*%
%TO.N,+3V3*%
X141162500Y-66545000D03*
%TO.P,C20,2*%
%TO.N,GND*%
X142887500Y-66545000D03*
%TD*%
%TO.P,C19,1*%
%TO.N,+3V3*%
X141162500Y-64035000D03*
%TO.P,C19,2*%
%TO.N,GND*%
X142887500Y-64035000D03*
%TD*%
%TO.P,C18,1*%
%TO.N,+3V3*%
X141162500Y-61525000D03*
%TO.P,C18,2*%
%TO.N,GND*%
X142887500Y-61525000D03*
%TD*%
%TO.P,C17,1*%
%TO.N,+3V3*%
X141162500Y-59015000D03*
%TO.P,C17,2*%
%TO.N,GND*%
X142887500Y-59015000D03*
%TD*%
%TO.P,C16,1*%
%TO.N,+1V1*%
X141162500Y-56505000D03*
%TO.P,C16,2*%
%TO.N,GND*%
X142887500Y-56505000D03*
%TD*%
%TO.P,C15,1*%
%TO.N,+1V1*%
X141162500Y-53995000D03*
%TO.P,C15,2*%
%TO.N,GND*%
X142887500Y-53995000D03*
%TD*%
%TO.P,C14,1*%
%TO.N,/VREG_AVDD*%
X141162500Y-51485000D03*
%TO.P,C14,2*%
%TO.N,GND*%
X142887500Y-51485000D03*
%TD*%
%TO.P,C13,1*%
%TO.N,+1V1*%
X141162500Y-48975000D03*
%TO.P,C13,2*%
%TO.N,GND*%
X142887500Y-48975000D03*
%TD*%
%TO.P,C12,1*%
%TO.N,+1V1*%
X141162500Y-46465000D03*
%TO.P,C12,2*%
%TO.N,GND*%
X142887500Y-46465000D03*
%TD*%
%TO.P,C11,1*%
%TO.N,+3V3*%
X141162500Y-43955000D03*
%TO.P,C11,2*%
%TO.N,GND*%
X142887500Y-43955000D03*
%TD*%
%TO.P,C10,1*%
%TO.N,+3V3*%
X136812500Y-66545000D03*
%TO.P,C10,2*%
%TO.N,GND*%
X138537500Y-66545000D03*
%TD*%
%TO.P,C9,1*%
%TO.N,+3V3*%
X136812500Y-64035000D03*
%TO.P,C9,2*%
%TO.N,GND*%
X138537500Y-64035000D03*
%TD*%
%TO.P,C8,1*%
%TO.N,Net-(C8-Pad1)*%
X136812500Y-61525000D03*
%TO.P,C8,2*%
%TO.N,GND*%
X138537500Y-61525000D03*
%TD*%
%TO.P,C7,1*%
%TO.N,/XIN*%
X136812500Y-59015000D03*
%TO.P,C7,2*%
%TO.N,GND*%
X138537500Y-59015000D03*
%TD*%
%TO.P,C5,1*%
%TO.N,+3V3*%
X136812500Y-53995000D03*
%TO.P,C5,2*%
%TO.N,GND*%
X138537500Y-53995000D03*
%TD*%
%TO.P,C4,1*%
%TO.N,VOUT*%
X136812500Y-51485000D03*
%TO.P,C4,2*%
%TO.N,GND*%
X138537500Y-51485000D03*
%TD*%
%TO.P,C2,1*%
%TO.N,+3V3*%
X136812500Y-46465000D03*
%TO.P,C2,2*%
%TO.N,GND*%
X138537500Y-46465000D03*
%TD*%
%TO.P,C1,1*%
%TO.N,+3V3*%
X136812500Y-43955000D03*
%TO.P,C1,2*%
%TO.N,GND*%
X138537500Y-43955000D03*
%TD*%
D38*
%TO.P,BZ3,1,+_1*%
%TO.N,+3V3*%
X170275000Y-63515000D03*
%TO.P,BZ3,2,-_2*%
%TO.N,Net-(BZ3--)*%
X178975000Y-63515000D03*
%TD*%
M02*
