M48
; DRILL file KiCad 10.0.4 date 2026-07-24T22:46:46
; FORMAT={-:-/ absolute / inch / decimal}
; #@! TF.CreationDate,2026-07-24T22:46:46+12:00
; #@! TF.GenerationSoftware,Kicad,Pcbnew,10.0.4
; #@! TF.FileFunction,Plated,1,2,PTH
FMAT,2
INCH
; #@! TA.AperFunction,Plated,PTH,ComponentDrill
T1C0.0079
; #@! TA.AperFunction,Plated,PTH,ComponentDrill
T2C0.0157
; #@! TA.AperFunction,Plated,PTH,ComponentDrill
T3C0.0236
; #@! TA.AperFunction,Plated,PTH,ComponentDrill
T4C0.0236
; #@! TA.AperFunction,Plated,PTH,ComponentDrill
T5C0.0315
; #@! TA.AperFunction,Plated,PTH,ComponentDrill
T6C0.0360
; #@! TA.AperFunction,Plated,PTH,ComponentDrill
T7C0.0394
%
G90
G05
T1
X6.9209Y-3.1333
X6.9209Y-3.1904
X6.9209Y-3.2474
X6.978Y-3.1333
X6.978Y-3.1904
X6.978Y-3.2474
X7.035Y-3.1333
X7.035Y-3.1904
X7.035Y-3.2474
T2
X6.3022Y-2.3553
X6.3022Y-2.4085
X6.3356Y-2.3553
X6.3356Y-2.4085
X6.3691Y-2.3553
X6.3691Y-2.4085
X6.4026Y-2.3553
X6.4026Y-2.4085
X6.436Y-2.3553
X6.436Y-2.4085
X6.4695Y-2.3553
X6.4695Y-2.4085
X6.503Y-2.3553
X6.503Y-2.4085
X6.5364Y-2.3553
X6.5364Y-2.4085
T6
X6.3169Y-2.8459
X6.3169Y-3.0683
X6.3169Y-3.1667
X6.3957Y-2.8459
X6.3957Y-3.0683
X6.3957Y-3.1667
X6.4744Y-2.8459
X6.4744Y-3.0683
X6.4744Y-3.1667
T7
X5.4283Y-2.8009
X5.4283Y-2.9009
X5.4283Y-3.0009
X5.4715Y-3.2652
X5.5699Y-3.2652
X6.0283Y-2.8009
X6.0283Y-2.9009
X6.0283Y-3.0009
X6.6907Y-3.0986
X6.6907Y-3.1986
X6.6907Y-3.2986
X6.7604Y-1.7715
X6.7604Y-1.8715
X6.7604Y-1.9715
X6.7604Y-2.0715
T3
G00X6.2343Y-3.1018
M15
G01X6.2343Y-3.1333
M16
G05
G00X6.5571Y-3.1018
M15
G01X6.5571Y-3.1333
M16
G05
T4
G00X6.249Y-2.3644
M15
G01X6.249Y-2.4234
M16
G05
G00X6.249Y-2.5112
M15
G01X6.249Y-2.5427
M16
G05
G00X6.5896Y-2.3644
M15
G01X6.5896Y-2.4234
M16
G05
G00X6.5896Y-2.5112
M15
G01X6.5896Y-2.5427
M16
G05
T5
G00X6.2343Y-2.8341
M15
G01X6.2343Y-2.8577
M16
G05
G00X6.5571Y-2.8341
M15
G01X6.5571Y-2.8577
M16
G05
M30
